<?xml version="1.0" encoding="utf-8"?>
<!-- Generator: Adobe Illustrator 12.0.0, SVG Export Plug-In . SVG Version: 6.00 Build 51448)  -->
<!DOCTYPE svg PUBLIC "-//W3C//DTD SVG 1.1 Tiny//EN" "http://www.w3.org/Graphics/SVG/1.1/DTD/svg11-tiny.dtd" [
	<!ENTITY ns_svg "http://www.w3.org/2000/svg">
	<!ENTITY ns_xlink "http://www.w3.org/1999/xlink">
]>
<svg  version="1.1" baseProfile="tiny" id="Layer_1" xmlns="&ns_svg;" xmlns:xlink="&ns_xlink;" width="44" height="44"
	 viewBox="0 0 44 44" xml:space="preserve">
<path fill="#8C8C8C" stroke="#8C8C8C" d="M41.09,18.646c0,4.337-3.641,7.859-8.137,7.859H10.81c-4.493,0-8.134-3.522-8.134-7.859
	l0,0c0-4.336,3.642-7.854,8.134-7.854h22.144C37.45,10.792,41.09,14.311,41.09,18.646L41.09,18.646z"/>
<ellipse fill="#8C8C8C" stroke="#8C8C8C" cx="10.934" cy="21.834" rx="9.495" ry="12.486"/>
<path fill="#8C8C8C" stroke="#8C8C8C" d="M42.204,21.77c0,6.896-4.248,12.484-9.498,12.484c-5.24,0-9.492-5.588-9.492-12.484
	c0-6.897,4.252-12.489,9.492-12.489C37.956,9.281,42.204,14.872,42.204,21.77z"/>
<rect x="9.294" y="15.245" stroke="#000000" width="2.413" height="12.199"/>
<rect x="4.995" y="19.888" stroke="#000000" width="11.385" height="2.584"/>
<path fill="#666666" stroke="#666666" d="M41.706,22.273c0,6.254-4.055,11.331-9.057,11.331c-5.01,0-9.066-5.076-9.066-11.331
	c0-6.262,4.057-11.335,9.066-11.335C37.651,10.938,41.706,16.011,41.706,22.273z"/>
<path fill="#B2B2B2" stroke="#B2B2B2" d="M30.698,27.357c-0.447,0.482-0.076,1.662,0.838,2.635l0,0
	c0.91,0.971,2.01,1.375,2.455,0.891l7.289-7.807c0.451-0.483,0.078-1.664-0.832-2.638l0,0c-0.908-0.975-2.012-1.373-2.459-0.893
	L30.698,27.357z"/>
<ellipse fill="#FFFF00" stroke="#FFFF00" cx="33.234" cy="27.961" rx="1.888" ry="2.254"/>
<path fill="#FF4000" stroke="#FF4000" d="M40.379,22.46c0,1.241-0.846,2.25-1.883,2.25c-1.045,0-1.893-1.01-1.893-2.25
	c0-1.243,0.848-2.254,1.893-2.254C39.534,20.206,40.379,21.218,40.379,22.46z"/>
<path fill="#B2B2B2" stroke="#B2B2B2" d="M25.071,22.541c-0.439,0.469-0.057,1.637,0.852,2.616l0,0c0.908,0.975,2,1.387,2.436,0.916
	l7.117-7.623c0.438-0.47,0.057-1.641-0.855-2.618l0,0c-0.906-0.972-2-1.381-2.439-0.911L25.071,22.541z"/>
<path fill="#003CFF" stroke="#003CFF" d="M34.649,17.555c0,1.244-0.844,2.253-1.891,2.253c-1.041,0-1.881-1.01-1.881-2.253
	c0-1.245,0.84-2.254,1.881-2.254C33.805,15.301,34.649,16.31,34.649,17.555z"/>
<path fill="#00FF00" stroke="#00FF00" d="M29.663,23.195c0,1.242-0.846,2.252-1.891,2.252c-1.043,0-1.881-1.01-1.881-2.252
	c0-1.243,0.838-2.256,1.881-2.256C28.817,20.939,29.663,21.953,29.663,23.195z"/>
<rect fill="none" width="44" height="44"/>
</svg>
