<?xml version="1.0" encoding="utf-8"?>
<!-- Generator: Adobe Illustrator 13.0.0, SVG Export Plug-In  -->
<!DOCTYPE svg PUBLIC "-//W3C//DTD SVG 1.1 Basic//EN" "http://www.w3.org/Graphics/SVG/1.1/DTD/svg11-basic.dtd" [
	<!ENTITY ns_flows "http://ns.adobe.com/Flows/1.0/">
]>
<svg version="1.1" baseProfile="basic"
	 xmlns="http://www.w3.org/2000/svg" xmlns:xlink="http://www.w3.org/1999/xlink" xmlns:a="http://ns.adobe.com/AdobeSVGViewerExtensions/3.0/"
	 x="0px" y="0px" width="44px" height="44px" viewBox="-2.485 0.099 44 44" enable-background="new -2.485 0.099 44 44"
	 xml:space="preserve">
<defs>
</defs>
<g id="XMLID_1_">
	<g>
		<path fill="#271913" d="M14.683,36.699c-1.146,1.45-3.579,0.524-4.426-0.596c-2.075,0.568-3.412-0.411-3.431-2.328
			c2.942,3.913,12.899,3.341,13.056-2.708c2.768-0.267,4.501-1.549,6.417-2.65c0.431,0.537,0.621,2.037-0.167,2.327
			c0.827,1.417-0.44,2.321-1.769,2.435c0.231,2.26-2.474,3.615-4.536,2.601C19.287,37.748,16.108,38.192,14.683,36.699z"/>
		<radialGradient id="SVGID_1_" cx="17.4614" cy="37.7778" r="8.555" fx="19.4354" fy="38.1457" gradientUnits="userSpaceOnUse">
			<stop  offset="0" style="stop-color:#FF102C"/>
			<stop  offset="0.1127" style="stop-color:#F9102B"/>
			<stop  offset="0.2576" style="stop-color:#E90F28"/>
			<stop  offset="0.4203" style="stop-color:#CF0E24"/>
			<stop  offset="0.5959" style="stop-color:#AA0D1E"/>
			<stop  offset="0.7818" style="stop-color:#7A0B16"/>
			<stop  offset="0.9737" style="stop-color:#41080C"/>
			<stop  offset="1" style="stop-color:#39080B"/>
		</radialGradient>
		<path fill="url(#SVGID_1_)" d="M20.049,36.264c2.787,1.277,3.721-1.808,6.306-1.245c-2.864,2.737-11.652,4.674-15.809,3.455
			C11.796,36.099,18.97,40.067,20.049,36.264z"/>
		<path d="M24.087,17.7c-3.245-1.6-5.808,0.62-6.085,3.193c1.397-1.292,3.729-2.679,6.417-2.001
			C24.201,18.598,24.23,18.064,24.087,17.7z M4.228,31.88c0.214-1.647,1.151-4.2,0.11-5.574C1.459,26.037,3.405,30.77,4.228,31.88z
			 M6.661,33.396c-0.395-0.731-0.646-2.163-0.276-3.139c-0.297-0.253-0.572-0.523-0.83-0.813
			C5.031,30.876,5.067,33.151,6.661,33.396z M9.261,25.709C8.6,25.362,8.364,24.64,8.376,23.763
			c-0.627,0.505-1.211,1.052-1.493,1.893C7.696,25.516,8.696,25.572,9.261,25.709z M10.257,36.103
			c0.847,1.12,3.279,2.046,4.426,0.596c1.425,1.493,4.604,1.049,5.145-0.92c2.063,1.015,4.768-0.341,4.536-2.601
			c1.328-0.113,2.596-1.018,1.769-2.435c0.788-0.29,0.598-1.79,0.167-2.327c-1.916,1.102-3.649,2.384-6.417,2.65
			c-0.156,6.049-10.113,6.621-13.056,2.708C6.846,35.692,8.183,36.671,10.257,36.103z M6.827,29.337
			c-3.497,8.082,13.377,8.681,12.89,1.676c-0.145-0.494-0.313-1.467-0.441-1.947c0.352,0.467,0.451,1.182,0.607,1.842
			c2.609-0.643,4.819-1.674,6.472-3.248c0.484,0.704,0.969,2.399,0.221,3.193c0.077,0.267,0.313,0.38,0.222,0.811
			c0.695-0.329,1.457-0.594,1.826-1.243c-0.337-0.159-0.99-0.007-1.162-0.327c1.563-0.422,2.812,1.19,2.323,2.599
			c-0.152-0.572-0.164-1.282-0.554-1.625c-0.936,4.841-4.427,7.059-8.128,9.153C18.089,41.707,9.89,42.781,7.38,39.512
			c-0.184-0.686-0.149-1.853,0.056-2.49c0.167-0.244,0.373,0.275,0.388,0c-0.22-1.275-1.665-1.602-1.272-3.303
			c-1.188-0.08-1.428-1.091-1.713-2.056c-0.648,3.278,0.365,6.759,2.375,7.922c-1.281,1.436,0.966,2.482,2.382,2.146
			c7.703,2.211,14.573-1.752,18.476-5.521c-3.687,4.279-10.062,7.447-18.089,6.277c10.272,2.747,19.175-2.569,21.96-9.85
			c3.074,0.531,5.709-2.643,6.03-5.467c0.465-4.094-2.429-6.585-4.867-3.734c-0.231,1.002-0.476,2.277-0.279,3.519
			c0.196-2.041,3.244-5.229,4.481-2.6c-1.87-1.893-3.836,1.009-4.202,2.925c0.138-0.357,0.537-0.601,1.003-0.707l0.023,0.105
			c-1.718,0.428,0.101,4.378-2.428,4.281c-0.82-0.664-1.071-1.625-1.245-2.752l0.065-0.01c0.202,1.413,1.689,3.873,2.139,1.68
			c0.286-1.411-0.604-3.589-0.223-5.574c0.153-0.797,1.024-1.703,1.05-2.112c0.069-1.04-1.552-1.531-2.212-1.786
			c-0.081,0.011,0.074,0.292-0.166,0.271c-0.518-0.273-1.051-0.531-1.595-0.778h-0.001v0c-0.003-0.006-0.005-0.013-0.008-0.02
			c0,0.005,0,0.01,0,0.016c-1.63-0.741-3.354-1.392-5.033-2.086c0.114,0.624,0.298,1.228,0.164,1.57
			c-3.308-0.923-5.82,0.972-7.358,2.653c0.197-1.848,1.44-3.79,2.381-4.818c-3.594,0.097-6.796-0.022-10.124,0.921
			c1.199,0.841,2.537,2.315,2.102,4.221c-0.621-1.765-3.882-2.187-5.643-1.136c-0.026-0.644-0.021-1.607,0.383-1.8
			c0.057-0.027,0.123-0.04,0.198-0.032c-0.133,0.376-0.332,0.866-0.305,1.398c1.658-0.832,4.485-0.342,5.255,0.757
			c-0.521-1.386-1.303-2.514-2.489-3.246c-0.663,0.259-1.682,0.643-2.667,1.108c-0.32,0.152-0.636,0.312-0.936,0.479
			c-1.784,0.997-2.965,2.248-0.712,3.446c0.144-1.133-0.102-2.93,0.731-3.414c0.041-0.024,0.085-0.044,0.131-0.062
			c-0.886,2.939,0.021,7.849-0.578,10.688c0.133-0.62,0.324-1.19,0.601-1.53c0.378,0.17,0.391,0.698,0.831,0.813
			c0.513-1.883,2.097-2.712,3.925-3.303c-0.961-0.557-2.585-0.694-3.871-0.485c0.027-3.438,5.735-3.722,5.53,0.105
			c0.846,0.077,2.047-0.196,2.491,0.271C11.317,26.2,7.801,27.088,6.827,29.337z M2.9,21.434c5.283-5.773,20.702-6.167,27.602-1.623
			c-2.433-4.193-10.413-5.152-17.146-5.087c-5.509,0.052-10.657,1.289-12.613,4.817C1.186,20.443,2.131,20.852,2.9,21.434z
			 M26.354,35.019c-2.585-0.563-3.519,2.522-6.306,1.245c-1.079,3.803-8.253-0.165-9.503,2.21
			C14.702,39.693,23.49,37.756,26.354,35.019z M1.593,17.844c0.438-0.374,2.271-1.665,3.354-2.146
			c6.79-3.02,19.291-0.85,24.67,1.894c-4.089-6.455-20.152-6.172-26.33-1.679C2.583,16.428,2.174,17.323,1.593,17.844z
			 M11.695,25.765c-0.497,0.575-2.186-0.12-1.023,0.692c0.326-0.224,0.651-0.137,1.079-0.26
			C11.743,26.042,11.781,25.845,11.695,25.765z M37.983,22.88c1.969,3.844-0.542,10.845-5.819,10.625
			c-2.433,5.79-8.824,10.84-17.425,10.553c-1.985-0.066-4.698-0.383-5.754-1.84c-2.003,0.009-2.289-0.74-2.656-2.382
			c-0.403-1.807-3.393-3.853-2.268-6.818c-1.534-1.05-3.286-8.747,0.664-7.091c0.064-0.552-0.094-1.35-0.166-1.948
			c-0.915-0.387-1.783-0.817-1.882-2.003c-2.235-0.452-3.378-3.146-1.437-4.654C0.66,7.174,8.201-4.027,23.259,1.897
			c7.497,2.95,14.32,9.607,12.666,19.753C36.85,21.721,37.671,22.349,37.983,22.88z M35.039,21.759
			c2.468-10.796-9.414-20.738-19.914-20.458C8.481,1.479,1.742,7.298,1.85,16.888c5.437-6.102,27.507-7.35,29.096,3.14
			c1.51-0.014,2.686,0.763,3.319,1.785C34.565,21.838,34.72,21.717,35.039,21.759z M24.528,34.911
			c1.655-1.229,4.494-1.594,4.537-4.222c-1.618,0.728-2.411,2.261-4.315,2.707C24.987,33.971,24.468,34.512,24.528,34.911z
			 M7.712,39.295c5.833,4.903,16.932,0.351,19.472-4.438c-3.456,3.414-14.883,6.225-19.582,2.436
			C7.59,38.007,7.62,38.683,7.712,39.295z M11.64,25.223c-0.04-0.145-0.04-0.173-0.111-0.271c-1.132,0.815-2.396-0.345-2.102-1.407
			c-0.208,0.068-0.501,0.052-0.663,0.164C8.272,25.417,10.669,26.39,11.64,25.223z M10.479,23.923
			c-1.113,0.329,0.742,1.472,0.553,0.327C10.987,23.971,10.681,23.865,10.479,23.923z"/>
		<path fill="#271913" d="M6.373,19.405c0.985-0.466,2.004-0.85,2.667-1.108c1.186,0.732,1.968,1.86,2.489,3.246
			c-0.77-1.099-3.597-1.589-5.255-0.757c-0.027-0.532,0.172-1.022,0.305-1.398c-0.075-0.008-0.141,0.004-0.198,0.032L6.373,19.405z"
			/>
		<linearGradient id="SVGID_2_" gradientUnits="userSpaceOnUse" x1="4.6426" y1="30.2183" x2="38.0215" y2="30.2183">
			<stop  offset="0" style="stop-color:#FDC47E"/>
			<stop  offset="0.3453" style="stop-color:#FBC27D"/>
			<stop  offset="0.5431" style="stop-color:#F2BA78"/>
			<stop  offset="0.7035" style="stop-color:#E4AD70"/>
			<stop  offset="0.8441" style="stop-color:#D19A64"/>
			<stop  offset="0.9703" style="stop-color:#B78355"/>
			<stop  offset="1" style="stop-color:#B07C51"/>
		</linearGradient>
		<path fill="url(#SVGID_2_)" d="M37.307,24.356c-1.237-2.63-4.285,0.559-4.481,2.6c-0.196-1.241,0.048-2.517,0.279-3.519
			c2.438-2.851,5.332-0.359,4.867,3.734c-0.321,2.824-2.956,5.998-6.03,5.467c-2.785,7.28-11.688,12.597-21.96,9.85
			c8.027,1.17,14.403-1.998,18.089-6.277c-3.903,3.77-10.773,7.732-18.476,5.521c-1.416,0.336-3.663-0.711-2.382-2.146
			c-2.01-1.163-3.023-4.644-2.375-7.922c0.286,0.965,0.525,1.976,1.713,2.056c-0.393,1.701,1.052,2.027,1.272,3.303
			c-0.015,0.275-0.221-0.244-0.388,0c-0.205,0.638-0.24,1.805-0.056,2.49c2.51,3.269,10.709,2.194,13.723,0.708
			c3.701-2.095,7.192-4.313,8.128-9.153c0.39,0.343,0.401,1.053,0.554,1.625c0.488-1.408-0.761-3.021-2.323-2.599
			c0.172,0.32,0.825,0.168,1.162,0.327c-0.369,0.649-1.131,0.914-1.826,1.243c0.092-0.431-0.145-0.544-0.222-0.811
			c0.748-0.794,0.264-2.489-0.221-3.193c-1.653,1.574-3.863,2.605-6.472,3.248c-0.156-0.66-0.255-1.375-0.607-1.842
			c0.129,0.48,0.297,1.453,0.441,1.947c0.488,7.005-16.386,6.406-12.89-1.676c0.974-2.249,4.491-3.138,7.69-2.924
			c-0.444-0.468-1.645-0.194-2.491-0.271c0.205-3.827-5.503-3.543-5.53-0.105c1.286-0.209,2.91-0.071,3.871,0.485
			c-1.829,0.591-3.413,1.42-3.925,3.303c-0.439-0.115-0.452-0.644-0.831-0.813c-0.277,0.34-0.468,0.91-0.601,1.53
			c0.599-2.839-0.308-7.749,0.578-10.688c-0.046,0.018-0.09,0.038-0.131,0.062l-0.019-0.032c0.299-0.167,0.615-0.327,0.936-0.479
			l0.007,0.014c-0.403,0.192-0.409,1.156-0.383,1.8c1.761-1.051,5.021-0.628,5.643,1.136c0.435-1.906-0.903-3.38-2.102-4.221
			c3.328-0.944,6.53-0.824,10.124-0.921c-0.941,1.029-2.184,2.97-2.381,4.818c1.538-1.681,4.05-3.576,7.358-2.653
			c0.134-0.342-0.05-0.946-0.164-1.57c1.68,0.694,3.403,1.345,5.033,2.086c-0.012,2.539-2.649,7.409,0.886,7.873
			c0.021,0.149,0.042,0.297,0.064,0.441c0.174,1.127,0.425,2.088,1.245,2.752c2.528,0.097,0.71-3.854,2.428-4.281
			c0.286-0.071,0.669-0.045,1.187,0.113c0.497,0.145,0.441,0.83,0.829,1.083c0.184-1.154-1.072-1.523-2.039-1.302
			c-0.466,0.106-0.865,0.35-1.003,0.707C33.471,25.365,35.437,22.463,37.307,24.356z M17.672,26.848
			c1.816-1.501,6.136-1.612,8.848-0.812C25.647,21.213,17.914,22.564,17.672,26.848z"/>
		<path d="M34.107,26.574c0.967-0.222,2.223,0.147,2.039,1.302c-0.388-0.253-0.332-0.938-0.829-1.083
			c-0.518-0.158-0.9-0.185-1.187-0.113L34.107,26.574z"/>
		<radialGradient id="SVGID_3_" cx="13.3979" cy="11.7979" r="26.5221" fx="14.2793" fy="6.3105" gradientUnits="userSpaceOnUse">
			<stop  offset="0" style="stop-color:#D7102C"/>
			<stop  offset="1" style="stop-color:#39080B"/>
		</radialGradient>
		<path fill="url(#SVGID_3_)" d="M15.125,1.301c10.5-0.28,22.381,9.663,19.914,20.458c-0.319-0.042-0.474,0.079-0.774,0.054
			c-0.634-1.022-1.81-1.799-3.319-1.785c-1.589-10.49-23.659-9.241-29.096-3.14C1.742,7.298,8.481,1.479,15.125,1.301z"/>
		<path fill="#271913" d="M31.277,20.406c0.66,0.255,2.281,0.746,2.212,1.786c-0.025,0.409-0.896,1.315-1.05,2.112
			c-0.381,1.985,0.509,4.163,0.223,5.574c-0.449,2.193-1.937-0.267-2.139-1.68c-0.02-0.138-0.027-0.264-0.021-0.376
			c0.13-0.237,0.509-0.226,0.555-0.542c-4.159,0.421-0.602-5.185-1.541-7.382c0.544,0.248,1.077,0.505,1.595,0.778
			C31.352,20.698,31.196,20.417,31.277,20.406z"/>
		<path d="M31.058,27.281c-0.046,0.316-0.425,0.305-0.555,0.542c-0.007,0.112,0.001,0.238,0.021,0.376l-0.065,0.01
			c-0.022-0.145-0.044-0.292-0.064-0.441c-3.535-0.464-0.897-5.334-0.886-7.873c0.003,0.002,0.005,0.003,0.008,0.004v0h0.001
			C30.456,22.096,26.898,27.702,31.058,27.281z"/>
		<path fill="#FFFFFF" d="M29.508,19.878c0.003,0.007,0.005,0.013,0.008,0.02c-0.003-0.001-0.005-0.002-0.008-0.004
			C29.508,19.889,29.508,19.884,29.508,19.878z"/>
		<linearGradient id="SVGID_4_" gradientUnits="userSpaceOnUse" x1="25.3135" y1="33.8579" x2="28.9315" y2="31.4984">
			<stop  offset="0" style="stop-color:#DEDEDE"/>
			<stop  offset="0.338" style="stop-color:#DCDCDC"/>
			<stop  offset="0.5115" style="stop-color:#D4D4D4"/>
			<stop  offset="0.6476" style="stop-color:#C7C7C7"/>
			<stop  offset="0.7642" style="stop-color:#B4B4B4"/>
			<stop  offset="0.8683" style="stop-color:#9B9B9B"/>
			<stop  offset="0.9622" style="stop-color:#7D7D7D"/>
			<stop  offset="1" style="stop-color:#6F6F6F"/>
		</linearGradient>
		<path fill="url(#SVGID_4_)" d="M29.065,30.689c-0.043,2.628-2.882,2.992-4.537,4.222c-0.061-0.398,0.459-0.939,0.222-1.515
			C26.654,32.95,27.447,31.417,29.065,30.689z"/>
		<path fill="#FFFFFF" d="M25.027,24.411c0.566,0.169,0.73,0.729,0.94,1.245c-0.674-0.043-1.107-0.323-1.714-0.433
			C24.523,24.965,24.914,24.826,25.027,24.411z"/>
		<radialGradient id="SVGID_5_" cx="15.4683" cy="13.27" r="14.1022" fx="12.9604" fy="13.5001" gradientUnits="userSpaceOnUse">
			<stop  offset="0" style="stop-color:#FF102C"/>
			<stop  offset="0.1127" style="stop-color:#F9102B"/>
			<stop  offset="0.2576" style="stop-color:#E90F28"/>
			<stop  offset="0.4203" style="stop-color:#CF0E24"/>
			<stop  offset="0.5959" style="stop-color:#AA0D1E"/>
			<stop  offset="0.7818" style="stop-color:#7A0B16"/>
			<stop  offset="0.9737" style="stop-color:#41080C"/>
			<stop  offset="1" style="stop-color:#39080B"/>
		</radialGradient>
		<path fill="url(#SVGID_5_)" d="M3.287,15.914c6.178-4.493,22.241-4.776,26.33,1.679c-5.38-2.744-17.881-4.914-24.67-1.894
			c-1.083,0.481-2.916,1.772-3.354,2.146C2.174,17.323,2.583,16.428,3.287,15.914z"/>
		<path fill="#271913" d="M24.087,17.7c0.144,0.364,0.114,0.898,0.332,1.191c-2.688-0.678-5.02,0.71-6.417,2.001
			C18.279,18.32,20.842,16.101,24.087,17.7z"/>
		<path fill="#1B2E8E" d="M24.143,23.545c1.017,0.395,0.211,1.313-0.388,1.624c-1.352-0.16-3.25-0.064-2.877-1.732
			c0.193-0.152,0.532-0.165,0.775-0.27C20.988,24.788,24.082,25.085,24.143,23.545z"/>
		<radialGradient id="SVGID_6_" cx="12.7622" cy="15.9106" r="9.8778" gradientUnits="userSpaceOnUse">
			<stop  offset="0" style="stop-color:#500504"/>
			<stop  offset="0.3315" style="stop-color:#4A0605"/>
			<stop  offset="0.7569" style="stop-color:#3A0808"/>
			<stop  offset="1" style="stop-color:#2E0A0B"/>
		</radialGradient>
		<path fill="url(#SVGID_6_)" d="M13.355,14.724c6.733-0.065,14.714,0.894,17.146,5.087c-6.9-4.544-22.319-4.15-27.602,1.623
			c-0.769-0.582-1.714-0.991-2.158-1.893C2.699,16.013,7.847,14.776,13.355,14.724z"/>
		<path fill="#FFFFFF" d="M23.37,23.439c0.264,0.827-1.438,0.556-0.802-0.119C22.568,23.328,23.3,23.216,23.37,23.439z"/>
		<path d="M22.568,23.32c-0.637,0.675,1.065,0.946,0.802,0.119C23.3,23.216,22.568,23.328,22.568,23.32z M26.52,26.037
			c-2.712-0.801-7.032-0.689-8.848,0.812C17.914,22.564,25.647,21.213,26.52,26.037z M25.968,25.656
			c-0.21-0.516-0.374-1.076-0.94-1.245c-0.113,0.415-0.504,0.555-0.773,0.813C24.86,25.333,25.294,25.613,25.968,25.656z
			 M23.755,25.169c0.599-0.312,1.404-1.229,0.388-1.624c-0.061,1.54-3.154,1.242-2.489-0.378c-0.243,0.104-0.582,0.117-0.775,0.27
			C20.505,25.105,22.403,25.009,23.755,25.169z M21.32,25.169c-0.484-0.319-0.962-0.646-0.885-1.516
			c-1.096,0.694-2.05,1.817-2.544,2.923C18.69,25.771,19.975,25.44,21.32,25.169z"/>
		<radialGradient id="SVGID_7_" cx="14.5874" cy="40.1157" r="11.1469" fx="16.6281" fy="40.4997" gradientUnits="userSpaceOnUse">
			<stop  offset="0" style="stop-color:#DEDEDE"/>
			<stop  offset="0.338" style="stop-color:#DCDCDC"/>
			<stop  offset="0.5115" style="stop-color:#D4D4D4"/>
			<stop  offset="0.6476" style="stop-color:#C7C7C7"/>
			<stop  offset="0.7642" style="stop-color:#B4B4B4"/>
			<stop  offset="0.8683" style="stop-color:#9B9B9B"/>
			<stop  offset="0.9622" style="stop-color:#7D7D7D"/>
			<stop  offset="1" style="stop-color:#6F6F6F"/>
		</radialGradient>
		<path fill="url(#SVGID_7_)" d="M27.185,34.857c-2.54,4.789-13.639,9.342-19.472,4.438c-0.093-0.612-0.122-1.288-0.11-2.003
			C12.301,41.082,23.729,38.271,27.185,34.857z"/>
		<path fill="#FFFFFF" d="M20.436,23.654c-0.077,0.869,0.4,1.196,0.885,1.516c-1.345,0.271-2.63,0.602-3.429,1.407
			C18.385,25.471,19.34,24.348,20.436,23.654z"/>
		<path fill="#FFFFFF" d="M11.695,25.765c0.085,0.08,0.048,0.277,0.056,0.433c-0.428,0.123-0.753,0.036-1.079,0.26
			C9.51,25.645,11.198,26.34,11.695,25.765z"/>
		<path fill="#1B2E8E" d="M11.529,24.953c0.071,0.098,0.071,0.126,0.111,0.271c-0.971,1.167-3.368,0.193-2.876-1.514
			c0.162-0.112,0.455-0.096,0.663-0.164C9.133,24.608,10.397,25.768,11.529,24.953z"/>
		<path fill="#FFFFFF" d="M11.031,24.25c0.189,1.145-1.666,0.002-0.553-0.327C10.681,23.865,10.987,23.971,11.031,24.25z"/>
		<path fill="#FFFFFF" d="M8.376,23.763C8.364,24.64,8.6,25.362,9.261,25.709c-0.564-0.138-1.564-0.193-2.377-0.054
			C7.165,24.815,7.75,24.268,8.376,23.763z"/>
		<path fill="#271913" d="M6.385,30.257c-0.37,0.976-0.119,2.407,0.276,3.139c-1.594-0.245-1.63-2.52-1.106-3.951
			C5.813,29.734,6.088,30.004,6.385,30.257z"/>
		<path fill="#271913" d="M5.438,19.883l0.019,0.032c-0.833,0.484-0.587,2.281-0.731,3.414C2.472,22.131,3.653,20.88,5.438,19.883z"
			/>
		<linearGradient id="SVGID_8_" gradientUnits="userSpaceOnUse" x1="2.8184" y1="29.0874" x2="4.8203" y2="29.0874">
			<stop  offset="0" style="stop-color:#FDC47E"/>
			<stop  offset="0.3453" style="stop-color:#FBC27D"/>
			<stop  offset="0.5431" style="stop-color:#F2BA78"/>
			<stop  offset="0.7035" style="stop-color:#E4AD70"/>
			<stop  offset="0.8441" style="stop-color:#D19A64"/>
			<stop  offset="0.9703" style="stop-color:#B78355"/>
			<stop  offset="1" style="stop-color:#B07C51"/>
		</linearGradient>
		<path fill="url(#SVGID_8_)" d="M4.338,26.306c1.041,1.374,0.104,3.927-0.11,5.574C3.405,30.77,1.459,26.037,4.338,26.306z"/>
	</g>
	<g>
	</g>
</g>
</svg>
